<svg version="1" xmlns="http://www.w3.org/2000/svg" width="592" height="592" viewBox="0 0 444.000000 444.000000"><path d="M0 222v222h444V0H0v222zM101 84.5V120h73V49h20v164h-20v-75h-73v75H81V49h20v35.5zM376 131c0 .3-36.7 18.8-81.5 41.3L213 213l.1-13.3.1-13.2 55.4-27.5c30.5-15.1 55.4-27.7 55.4-28 0-.3-25-13-55.5-28.3L213 75V49l81.5 40.7c44.8 22.5 81.5 41 81.5 41.3zm-95.2 101.5l4.2 1.7V254h-8.9l-.3-6.8-.3-6.7-4.8-.9c-10-2-20.7 2.5-26.2 10.9-4 6.3-5 11-5 24.5s1.3 18.1 7.2 25.8c5 6.6 16.4 9.7 27.2 7.6 3.1-.6 3.1-.7 3.1-7V295h9.1l-.3 8.7-.3 8.8-5 2.5c-7.3 3.6-21.6 4.1-29.9 1-14.5-5.5-22.6-20.5-22.6-42.1 0-23.1 10.6-39.1 28.4-42.9 6-1.3 19.4-.5 24.4 1.5zM91.2 250.2l.3 18.3 19.3.3 19.2.2v-37h10v85h-10v-39H91v39H81v-85h10l.2 18.2zm112.3 23c7.6 22.7 14 41.9 14.3 42.6.3 1-.8 1.2-4.9 1l-5.4-.3-4-11.8-4-11.7-16.4.2-16.4.3-4 11.7-3.9 11.8h-5c-3.6 0-4.9-.4-4.6-1.3.3-.6 6.7-19.8 14.4-42.4l13.9-41.3h12.2l13.8 41.2zM314 251v19h8.5l13.5-19 13.5-18.9h5.8c4.4-.1 5.6.2 5.1 1.1-.5.7-7 9.7-14.7 20-8.9 12.1-13.6 19.2-13.1 20 .5.7 7.6 10.3 15.9 21.3s15.5 20.6 15.9 21.2c.5 1-.8 1.3-5.6 1.2h-6.3l-14.9-20-15-19.9H314v40h-11v-85h11v19zm17 77v7l16.3.2 16.2.3.3 4.2.3 4.3H331v18.4c0 17.4.1 18.5 2.3 21.7 5 7.5 15.6 9.1 25.8 3.9l5.9-3 1.5 3.1c.9 1.6 1.3 3.4 1 3.9-1.3 2.1-10.5 6-16.1 6.9-13 2-22.7-2.1-27.6-11.8-2.8-5.4-2.8-5.7-2.8-24.3V344h-15v-9h15v-5.9c0-5.6.2-6 2.8-6.9 1.5-.6 3.7-1.1 5-1.1 2.1-.1 2.2.3 2.2 6.9zm-202.7 7.1c2.1.5 5.3 2.3 7.1 4 5.9 5.1 6.8 9.5 7.3 35.6l.6 23.3h-10.1l-.4-21.8c-.4-23.6-1.1-27.4-6.2-30.7-3.9-2.6-10-3-15-1.1-4.7 1.8-11 7.9-12.6 12.2-.6 1.4-1 11.3-1 22V398h-9v-20.3c0-11.1-.3-23.2-.6-26.9l-.7-6.7-4.1-.3c-4.1-.3-4.1-.3-4.1-4.3v-4l8.2-.3 8.1-.3.7 5.1c.4 2.7.8 5 .9 5 .2 0 2.1-1.7 4.3-3.8 7-6.4 17.2-8.8 26.6-6.1zm73.6.5c9.9 2.9 15.4 11.4 16.8 25.6l.6 6.8h-49.5l.7 4.7c.9 6.1 2.6 9.3 6.9 13.1 7.2 6.3 19.5 6.4 31.6.3l5.8-2.8 1.6 3.5c2 4.1 2.2 3.8-7.4 8.5-5.6 2.7-7.8 3.2-16 3.5-7.9.3-10.5 0-15.2-1.7-10.6-4-16.7-13.6-17.5-27.6-.6-9.3 1-16.6 5.2-23 6.7-10.3 22.6-15 36.4-10.9zm53.6 10.9c4.8 6.3 9.1 11.5 9.5 11.5.4 0 4.9-5.2 9.9-11.5L284 335h5c2.7 0 5 .3 5 .8 0 .4-5.2 7.1-11.5 14.9-6.3 7.8-11.5 14.4-11.5 14.8 0 .3 5.2 7.2 11.6 15.3 6.4 8.1 12.1 15.3 12.7 15.9.7 1-.4 1.3-5 1.3h-6l-9.7-12.5c-5.4-6.9-10-12.5-10.4-12.4-.4 0-5 5.6-10.2 12.4l-9.5 12.4h-5.9l-5.8.1 3.4-4.3c1.9-2.3 7.6-9.3 12.6-15.5 5.1-6.2 9.2-11.7 9.2-12.2s-5.2-7.4-11.5-15.4c-6.3-7.9-11.5-14.7-11.5-15 0-.3 2.6-.6 5.9-.6h5.8l8.8 11.5z"/><path d="M182.5 245.1c-.4 1.1-7.8 24.4-12.1 38.1-.5 1.7.5 1.8 12.5 1.8 11.2 0 13.1-.2 13.1-1.6 0-2.1-11.1-37.7-12.1-38.8-.5-.6-1.1-.3-1.4.5zM183.1 343.4c-6.9 2.3-12.1 8.5-12.1 14.6 0 1.9.6 2 19 2h19v-2.3c-.1-4.1-3.7-10.3-7.4-12.6-4.5-2.8-12.7-3.6-18.5-1.7z"/></svg>